<svg width="14" height="14" viewBox="0 0 14 14" fill="none" xmlns="http://www.w3.org/2000/svg">
<path d="M13.4173 1.75001C12.8587 2.14403 12.2402 2.4454 11.5856 2.64251C11.2343 2.23855 10.7674 1.95224 10.2481 1.8223C9.72874 1.69235 9.18202 1.72504 8.68186 1.91594C8.1817 2.10684 7.75224 2.44674 7.45156 2.88967C7.15087 3.33261 6.99347 3.8572 7.00065 4.39251V4.97584C5.97552 5.00242 4.95973 4.77506 4.04374 4.31402C3.12775 3.85297 2.34 3.17254 1.75065 2.33334C1.75065 2.33334 -0.582682 7.58334 4.66732 9.91667C3.46596 10.7322 2.03483 11.141 0.583984 11.0833C5.83398 14 12.2506 11.0833 12.2506 4.37501C12.2501 4.21252 12.2345 4.05044 12.204 3.89084C12.7993 3.30371 13.2195 2.56242 13.4173 1.75001Z" fill="#101010"/>
</svg>
