<svg width="14" height="14" viewBox="0 0 14 14" fill="none" xmlns="http://www.w3.org/2000/svg">
<path d="M9.33203 4.66669C10.2603 4.66669 11.1505 5.03544 11.8069 5.69181C12.4633 6.34819 12.832 7.23843 12.832 8.16669V12.25H10.4987V8.16669C10.4987 7.85727 10.3758 7.56052 10.157 7.34173C9.9382 7.12294 9.64145 7.00002 9.33203 7.00002C9.02261 7.00002 8.72587 7.12294 8.50707 7.34173C8.28828 7.56052 8.16536 7.85727 8.16536 8.16669V12.25H5.83203V8.16669C5.83203 7.23843 6.20078 6.34819 6.85716 5.69181C7.51354 5.03544 8.40377 4.66669 9.33203 4.66669Z" fill="#101010"/>
<path d="M1.16602 5.25H3.49935V12.25H1.16602V5.25Z" fill="#101010"/>
<path d="M2.33268 3.50002C2.97701 3.50002 3.49935 2.97769 3.49935 2.33335C3.49935 1.68902 2.97701 1.16669 2.33268 1.16669C1.68835 1.16669 1.16602 1.68902 1.16602 2.33335C1.16602 2.97769 1.68835 3.50002 2.33268 3.50002Z" fill="#101010"/>
</svg>
