<svg width="48" height="55" viewBox="0 0 48 55" fill="none" xmlns="http://www.w3.org/2000/svg">
<path d="M12.723 27.6696C12.723 26.2157 11.7129 25.3472 9.93191 25.3472C9.20497 25.3472 8.71333 25.418 8.45508 25.4868V30.1565C8.76116 30.2253 9.1361 30.2502 9.6507 30.2502C11.5503 30.2502 12.723 29.288 12.723 27.6696Z" fill="#ED4C5C"/>
<path d="M23.7531 25.3931C22.9554 25.3931 22.4389 25.4638 22.1328 25.5346V35.8801C22.4389 35.9509 22.9305 35.9509 23.3763 35.9509C26.613 35.9738 28.725 34.1909 28.725 30.4147C28.7499 27.1301 26.8254 25.3931 23.7531 25.3931Z" fill="#ED4C5C"/>
<path d="M44.8864 19.3155H43.5894V13.0581C43.5883 13.0184 43.5845 12.9787 43.5779 12.9395C43.58 12.6878 43.491 12.4439 43.3273 12.2527L32.9149 0.361555L32.9072 0.353904C32.775 0.210413 32.6065 0.10532 32.4194 0.0497379L32.362 0.0306075C32.2826 0.0107908 32.201 0.000516144 32.1191 0H6.52895C5.36011 0 4.41126 0.950758 4.41126 2.11769V19.3155H3.11425C1.44229 19.3155 0.0878906 20.6699 0.0878906 22.3419V38.082C0.0878906 39.752 1.4442 41.1084 3.11425 41.1084H4.41126V51.8843C4.41126 53.0512 5.36011 54.002 6.52895 54.002H41.4717C42.6386 54.002 43.5894 53.0512 43.5894 51.8843V41.1084H44.8864C46.5584 41.1084 47.9128 39.752 47.9128 38.082V22.3419C47.9128 20.6699 46.5565 19.3155 44.8864 19.3155ZM6.52895 2.11769H31.0593V12.9529C31.0593 13.5383 31.5337 14.0108 32.1191 14.0108H41.4736V19.3155H6.52895V2.11769ZM32.5266 30.2961C32.5266 33.3225 31.4247 35.4115 29.8962 36.7008C28.2319 38.0839 25.6991 38.742 22.6019 38.742C20.7482 38.742 19.4359 38.6234 18.5426 38.5086V22.977C19.8568 22.7666 21.5689 22.6499 23.3767 22.6499C26.3782 22.6499 28.3256 23.1893 29.8503 24.339C31.4935 25.5576 32.5266 27.505 32.5266 30.2961ZM4.91055 38.5794V22.977C6.01244 22.7895 7.56196 22.6499 9.74278 22.6499C11.9485 22.6499 13.5209 23.0726 14.575 23.9163C15.5832 24.714 16.2623 26.0282 16.2623 27.5758C16.2623 29.1254 15.7477 30.4377 14.8084 31.3291C13.5879 32.4788 11.782 32.9953 9.67008 32.9953C9.2014 32.9953 8.77863 32.9724 8.45151 32.9246V38.5794H4.91055ZM41.4717 51.3104H6.52895V41.1084H41.4717V51.3104ZM44.5402 25.6992H38.4626V29.3128H44.1403V32.2225H38.4626V38.5794H34.8757V22.7666H44.5402V25.6992Z" fill="#ED4C5C"/>
</svg>
